REM DIRINDEX 1\2,1\3,1\4
REM DIRNAME cjc151,folder01,folder02,folder03
TITLE ""
FILE "146 146_Lesson 7_TOEFL_3900.mp3" MP3
  TRACK 01 AUDIO
    TITLE "4:cjc151_6353"
    INDEX 01 00:00:00
  TRACK 02 AUDIO
    TITLE "0:"
    INDEX 01 00:01:60
  TRACK 03 AUDIO
    TITLE "2:cjc151_6354"
    INDEX 01 00:02:40
  TRACK 04 AUDIO
    TITLE "0:"
    INDEX 01 00:03:49
  TRACK 05 AUDIO
    TITLE "3:cjc151_6355"
    INDEX 01 00:05:28
  TRACK 06 AUDIO
    TITLE "0:"
    INDEX 01 00:09:26
  TRACK 07 AUDIO
    TITLE "2:cjc151_6356"
    INDEX 01 00:11:05
  TRACK 08 AUDIO
    TITLE "0:"
    INDEX 01 00:12:28
  TRACK 09 AUDIO
    TITLE "3:cjc151_6357"
    INDEX 01 00:14:06
  TRACK 10 AUDIO
    TITLE "0:"
    INDEX 01 00:18:54
  TRACK 11 AUDIO
    TITLE "2:cjc151_6358"
    INDEX 01 00:20:36
  TRACK 12 AUDIO
    TITLE "0:"
    INDEX 01 00:21:60
  TRACK 13 AUDIO
    TITLE "3:cjc151_6359"
    INDEX 01 00:23:38
  TRACK 14 AUDIO
    TITLE "0:"
    INDEX 01 00:27:51
  TRACK 15 AUDIO
    TITLE "2:cjc151_6360"
    INDEX 01 00:29:29
  TRACK 16 AUDIO
    TITLE "0:"
    INDEX 01 00:30:40
  TRACK 17 AUDIO
    TITLE "3:cjc151_6361"
    INDEX 01 00:32:19
  TRACK 18 AUDIO
    TITLE "0:"
    INDEX 01 00:36:19
  TRACK 19 AUDIO
    TITLE "2:cjc151_6362"
    INDEX 01 00:37:73
  TRACK 20 AUDIO
    TITLE "0:"
    INDEX 01 00:39:15
  TRACK 21 AUDIO
    TITLE "3:cjc151_6363"
    INDEX 01 00:40:72
  TRACK 22 AUDIO
    TITLE "0:"
    INDEX 01 00:45:18
  TRACK 23 AUDIO
    TITLE "2:cjc151_6364"
    INDEX 01 00:46:70
  TRACK 24 AUDIO
    TITLE "0:"
    INDEX 01 00:48:12
  TRACK 25 AUDIO
    TITLE "3:cjc151_6365"
    INDEX 01 00:49:69
  TRACK 26 AUDIO
    TITLE "0:"
    INDEX 01 00:55:18
  TRACK 27 AUDIO
    TITLE "2:cjc151_6366"
    INDEX 01 00:56:71
  TRACK 28 AUDIO
    TITLE "0:"
    INDEX 01 00:58:24
  TRACK 29 AUDIO
    TITLE "3:cjc151_6367"
    INDEX 01 01:00:04
  TRACK 30 AUDIO
    TITLE "0:"
    INDEX 01 01:04:27
  TRACK 31 AUDIO
    TITLE "2:cjc151_6368"
    INDEX 01 01:06:06
  TRACK 32 AUDIO
    TITLE "0:"
    INDEX 01 01:07:27
  TRACK 33 AUDIO
    TITLE "3:cjc151_6369"
    INDEX 01 01:09:09
  TRACK 34 AUDIO
    TITLE "0:"
    INDEX 01 01:13:06
  TRACK 35 AUDIO
    TITLE "2:cjc151_6370"
    INDEX 01 01:14:61
  TRACK 36 AUDIO
    TITLE "0:"
    INDEX 01 01:15:52
  TRACK 37 AUDIO
    TITLE "3:cjc151_6371"
    INDEX 01 01:17:32
  TRACK 38 AUDIO
    TITLE "0:"
    INDEX 01 01:21:37
  TRACK 39 AUDIO
    TITLE "2:cjc151_6372"
    INDEX 01 01:23:22
  TRACK 40 AUDIO
    TITLE "0:"
    INDEX 01 01:24:20
  TRACK 41 AUDIO
    TITLE "3:cjc151_6373"
    INDEX 01 01:25:74
  TRACK 42 AUDIO
    TITLE "0:"
    INDEX 01 01:29:52
  TRACK 43 AUDIO
    TITLE "2:cjc151_6374"
    INDEX 01 01:31:38
  TRACK 44 AUDIO
    TITLE "0:"
    INDEX 01 01:32:55
  TRACK 45 AUDIO
    TITLE "3:cjc151_6375"
    INDEX 01 01:34:34
  TRACK 46 AUDIO
    TITLE "0:"
    INDEX 01 01:38:55
  TRACK 47 AUDIO
    TITLE "2:cjc151_6376"
    INDEX 01 01:40:35
  TRACK 48 AUDIO
    TITLE "0:"
    INDEX 01 01:41:52
  TRACK 49 AUDIO
    TITLE "3:cjc151_6377"
    INDEX 01 01:43:31
  TRACK 50 AUDIO
    TITLE "0:"
    INDEX 01 01:47:19
  TRACK 51 AUDIO
    TITLE "2:cjc151_6378"
    INDEX 01 01:48:73
  TRACK 52 AUDIO
    TITLE "0:"
    INDEX 01 01:49:71
  TRACK 53 AUDIO
    TITLE "3:cjc151_6379"
    INDEX 01 01:51:50
  TRACK 54 AUDIO
    TITLE "0:"
    INDEX 01 01:55:03
  TRACK 55 AUDIO
    TITLE "2:cjc151_6380"
    INDEX 01 01:56:55
  TRACK 56 AUDIO
    TITLE "0:"
    INDEX 01 01:58:36
  TRACK 57 AUDIO
    TITLE "3:cjc151_6381"
    INDEX 01 02:00:16
  TRACK 58 AUDIO
    TITLE "0:"
    INDEX 01 02:04:59
  TRACK 59 AUDIO
    TITLE "2:cjc151_6382"
    INDEX 01 02:06:48
  TRACK 60 AUDIO
    TITLE "0:"
    INDEX 01 02:07:65
  TRACK 61 AUDIO
    TITLE "3:cjc151_6383"
    INDEX 01 02:09:42
  TRACK 62 AUDIO
    TITLE "0:"
    INDEX 01 02:14:69
  TRACK 63 AUDIO
    TITLE "2:cjc151_6384"
    INDEX 01 02:16:48
  TRACK 64 AUDIO
    TITLE "0:"
    INDEX 01 02:17:57
  TRACK 65 AUDIO
    TITLE "3:cjc151_6385"
    INDEX 01 02:19:40
  TRACK 66 AUDIO
    TITLE "0:"
    INDEX 01 02:25:18
  TRACK 67 AUDIO
    TITLE "2:cjc151_6386"
    INDEX 01 02:26:72
  TRACK 68 AUDIO
    TITLE "0:"
    INDEX 01 02:28:24
  TRACK 69 AUDIO
    TITLE "3:cjc151_6387"
    INDEX 01 02:30:01
  TRACK 70 AUDIO
    TITLE "0:"
    INDEX 01 02:35:18
  TRACK 71 AUDIO
    TITLE "2:cjc151_6388"
    INDEX 01 02:36:70
  TRACK 72 AUDIO
    TITLE "0:"
    INDEX 01 02:38:18
  TRACK 73 AUDIO
    TITLE "3:cjc151_6389"
    INDEX 01 02:40:00
  TRACK 74 AUDIO
    TITLE "0:"
    INDEX 01 02:44:52
  TRACK 75 AUDIO
    TITLE "2:cjc151_6390"
    INDEX 01 02:46:31
  TRACK 76 AUDIO
    TITLE "0:"
    INDEX 01 02:47:45
  TRACK 77 AUDIO
    TITLE "3:cjc151_6391"
    INDEX 01 02:49:24
  TRACK 78 AUDIO
    TITLE "0:"
    INDEX 01 02:53:18
  TRACK 79 AUDIO
    TITLE "2:cjc151_6392"
    INDEX 01 02:54:72
  TRACK 80 AUDIO
    TITLE "0:"
    INDEX 01 02:56:32
  TRACK 81 AUDIO
    TITLE "3:cjc151_6393"
    INDEX 01 02:58:11
  TRACK 82 AUDIO
    TITLE "0:"
    INDEX 01 03:01:55
  TRACK 83 AUDIO
    TITLE "2:cjc151_6394"
    INDEX 01 03:03:30
  TRACK 84 AUDIO
    TITLE "0:"
    INDEX 01 03:04:63
  TRACK 85 AUDIO
    TITLE "3:cjc151_6395"
    INDEX 01 03:06:40
  TRACK 86 AUDIO
    TITLE "0:"
    INDEX 01 03:11:20
  TRACK 87 AUDIO
    TITLE "2:cjc151_6396"
    INDEX 01 03:13:03
  TRACK 88 AUDIO
    TITLE "0:"
    INDEX 01 03:14:14
  TRACK 89 AUDIO
    TITLE "3:cjc151_6397"
    INDEX 01 03:15:68
  TRACK 90 AUDIO
    TITLE "0:"
    INDEX 01 03:20:44
